<?xml version="1.0" encoding="utf-8"?>
<!-- Generator: Adobe Illustrator 23.0.0, SVG Export Plug-In . SVG Version: 6.00 Build 0)  -->
<svg version="1.1" xmlns="http://www.w3.org/2000/svg" xmlns:xlink="http://www.w3.org/1999/xlink" x="0px" y="0px"
	 viewBox="0 0 1200 1200" style="enable-background:new 0 0 1200 1200;" xml:space="preserve">
<style type="text/css">
	.st0{fill:#5F4B8C;}
	.st1{fill:#FFFFFF;}
</style>
<g id="Layer_3">
</g>
<g id="Layer_2">
</g>
<g id="Layer_4">
	<path class="st0" d="M556.13,790.3c1.09-15.49,13.65-43.98,29.8-74.93v36.12c-8,17.19-13.25,31.43-13.83,39.93
		c-0.96,13.62,5.54,22.79,13.83,28.9v18.63C569.3,830.31,554.43,815.04,556.13,790.3z M938.47,395.94V382.9H801.11
		c-72.21,120.36-97.83,163.06-106.89,178.2v29.27l106.89-174.63v424.19h-52.06v13.12h189.42v-13.12h-60.51V395.94H938.47z
		 M606.3,711.37l-4.72-8.16l-2.32-4.03v260.3c0,39.37-9.46,70.35-28.39,92.9c-18.9,22.53-43.9,33.8-75.01,33.8
		c-29.03,0-53.37-7.78-73.07-23.32c-19.7-15.54-29.54-33.67-29.54-54.41c0-13.99,4.9-21.01,14.77-21.01c2.05,0,7.25,1.31,15.54,3.89
		c8.29,2.61,14.5,3.89,18.66,3.89c12.45,0,23.06-5.17,31.88-15.54c8.8-10.37,13.22-23.06,13.22-38.09
		c0-18.15-5.73-32.65-17.11-43.53c-11.41-10.9-25.91-16.34-43.53-16.34c-22.82,0-41.21,8.82-55.21,26.44s-20.98,40.68-20.98,69.17
		c0,39.93,14.77,73.09,44.3,99.51c29.54,26.44,66.86,39.64,111.96,39.64c52.33,0,94.44-14.1,126.33-42.36
		c31.85-28.23,47.8-64.91,47.8-109.99v-123.5L606.3,711.37z M905.87,207.82c-5.22-9.12-19.03-26.98-46.62-26.98
		c-6.85,0-14.55,1.12-23.19,3.73l-11.49,3.49l0.21,0.67c-19.78,6.26-34.15,24.79-34.15,46.65c0,27.03,21.89,48.92,48.89,48.92
		c27.03,0,48.92-21.89,48.92-48.92c0-4.03-0.48-7.92-1.41-11.68c8.96,20.5,4.53,54.46-17.25,74.77
		c-20.34,18.95-48.81,23.4-71.07,23.4c-18.05,0-32.01-2.93-34.23-3.41l-120.57-37.45c-18.05-6.61-159.22-57.58-206.86-57.58
		c-2.35,0-4.48,0.11-6.34,0.37c-42.41,5.86-61.74,34.2-61.74,58.03c0,15.01,0,40.12,16.98,56.78c0,0,11.06,9.97,17.91,13.19
		c6.82,3.23,13.25,4.35,25.51,4.35c27,0,48.89-21.91,48.89-48.92s-21.89-48.92-48.89-48.92c-13.41,0-25.54,5.38-34.36,14.13
		c4.08-9.86,15.03-21.57,38.97-24.87c1.17-0.16,2.56-0.24,4.08-0.24c26.1,0,101.14,22.76,161.19,43.34v189.18
		c20.07,33.77,42.49,71.63,63.2,106.73c1.41,2.4,2.83,4.8,4.21,7.17c1.52,2.59,3.04,5.17,4.53,7.73c3.28,5.62,6.53,11.12,9.68,16.5
		V317.62l76.9,23.91l0.72,0.19c1.47,0.37,18.05,4.27,40.2,4.27c26.66,0,61.39-5.68,87.43-29.96
		C915.06,289.05,924.1,239.49,905.87,207.82z M705.17,686.58c-3.28-5.76-6.93-12.18-10.96-19.11c-2.11-3.71-4.35-7.54-6.66-11.54
		c-2.13-3.71-4.37-7.54-6.66-11.46c-5.54-9.54-11.49-19.7-17.67-30.26c-1.49-2.56-3.01-5.14-4.53-7.76
		c-1.52-2.59-3.04-5.2-4.58-7.81c-17.7-30.07-36.87-62.4-54.83-92.66c-2.24-3.79-4.45-7.52-6.66-11.22
		c-2.24-3.79-4.48-7.52-6.66-11.22C552.4,427.18,525.9,382.9,525.9,382.9H362.18v14.82l68.96,0.88l11.2,12.24v363.57
		c0,51.47-55.9,65.52-55.9,65.52h-26.92v13.12h189.42v-13.12h-33.24c0,0-55.9-14.05-55.9-65.52V430.78l126.14,218.64l13.33,23.08
		l5.17,8.96l4.69,8.16l4.66,8.08l67.1,116.3l13.33,23.08l0.64,1.12l0.21,15.73c0,0,2.03,0.61,5.46,0.61
		c6.69,0,18.69-2.35,31.21-16.13C750.73,817.54,752.62,770.09,705.17,686.58z"/>
	<path class="st0" d="M710.82,266.28l-126.33-46.73l24.79-76.93l13.35-41.48l39.85,74.64l28.2,52.81L710.82,266.28z M626.64,93.01
		l33.93,63.55l31.45-105.48L626.64,93.01z M532.65,121.03l15.3,30.02l31.19,61.15l21.01-65.2L532.65,121.03z M523.93,120.12
		l-25.62,23.59h37.64L523.93,120.12z M702.64,235.39l16.77,31.38l15.97-17.41l14.93-16.26L702.64,235.39z M757.84,235.76
		l-10.48,11.41l19.03,9.54L757.84,235.76z"/>
</g>
</svg>
